<svg width="596" height="149" viewBox="0 0 596 149" fill="none" xmlns="http://www.w3.org/2000/svg">
<g clip-path="url(#clip0_1_119)">
<path d="M195 71C215.539 64.963 301.895 56.5112 483 71" stroke="#57B8FF" stroke-width="4" stroke-linecap="round"/>
</g>
<path d="M120.75 45C119.694 45 118.718 44.744 117.822 44.232C116.958 43.72 116.27 43.032 115.758 42.168C115.246 41.272 114.99 40.296 114.99 39.24V16.2C114.99 15.144 115.246 14.184 115.758 13.32C116.27 12.424 116.958 11.72 117.822 11.208C118.718 10.696 119.694 10.44 120.75 10.44H143.79C144.846 10.44 145.806 10.696 146.67 11.208C147.566 11.72 148.27 12.424 148.782 13.32C149.294 14.184 149.55 15.144 149.55 16.2V39.24C149.55 40.296 149.294 41.272 148.782 42.168C148.27 43.032 147.566 43.72 146.67 44.232C145.806 44.744 144.846 45 143.79 45H120.75ZM120.75 41.112H143.79C144.302 41.112 144.734 40.936 145.086 40.584C145.47 40.2 145.662 39.752 145.662 39.24V16.2C145.662 15.688 145.47 15.256 145.086 14.904C144.734 14.52 144.302 14.328 143.79 14.328H120.75C120.238 14.328 119.79 14.52 119.406 14.904C119.054 15.256 118.878 15.688 118.878 16.2V39.24C118.878 39.752 119.054 40.2 119.406 40.584C119.79 40.936 120.238 41.112 120.75 41.112ZM160.5 45C159.444 45 158.468 44.744 157.572 44.232C156.708 43.688 156.004 42.984 155.46 42.12C154.948 41.224 154.692 40.248 154.692 39.192V17.16H158.628V39.192C158.628 39.704 158.804 40.152 159.156 40.536C159.54 40.888 159.988 41.064 160.5 41.064H177.204C177.716 41.064 178.164 40.888 178.548 40.536C178.932 40.152 179.124 39.704 179.124 39.192V17.16H183.06V39.192C183.06 40.248 182.788 41.224 182.244 42.12C181.732 42.984 181.028 43.688 180.132 44.232C179.268 44.744 178.292 45 177.204 45H160.5ZM188.019 45V22.968C188.019 21.912 188.275 20.952 188.787 20.088C189.331 19.192 190.035 18.488 190.899 17.976C191.795 17.432 192.771 17.16 193.827 17.16H209.475V21.096H193.827C193.315 21.096 192.867 21.288 192.483 21.672C192.131 22.024 191.955 22.456 191.955 22.968V45H188.019ZM231.372 45C230.316 45 229.34 44.744 228.444 44.232C227.58 43.72 226.892 43.032 226.38 42.168C225.868 41.272 225.612 40.296 225.612 39.24V37.896H229.5V39.24C229.5 39.752 229.676 40.2 230.028 40.584C230.412 40.936 230.86 41.112 231.372 41.112H254.412C254.924 41.112 255.356 40.936 255.708 40.584C256.092 40.2 256.284 39.752 256.284 39.24V31.512C256.284 31 256.092 30.568 255.708 30.216C255.356 29.864 254.924 29.688 254.412 29.688H231.372C230.316 29.688 229.34 29.432 228.444 28.92C227.58 28.376 226.892 27.672 226.38 26.808C225.868 25.944 225.612 24.984 225.612 23.928V16.2C225.612 15.144 225.868 14.184 226.38 13.32C226.892 12.424 227.58 11.72 228.444 11.208C229.34 10.696 230.316 10.44 231.372 10.44H254.412C255.468 10.44 256.428 10.696 257.292 11.208C258.188 11.72 258.892 12.424 259.404 13.32C259.916 14.184 260.172 15.144 260.172 16.2V17.544H256.284V16.2C256.284 15.688 256.092 15.256 255.708 14.904C255.356 14.52 254.924 14.328 254.412 14.328H231.372C230.86 14.328 230.412 14.52 230.028 14.904C229.676 15.256 229.5 15.688 229.5 16.2V23.928C229.5 24.44 229.676 24.872 230.028 25.224C230.412 25.576 230.86 25.752 231.372 25.752H254.412C255.468 25.752 256.428 26.024 257.292 26.568C258.188 27.08 258.892 27.768 259.404 28.632C259.916 29.496 260.172 30.456 260.172 31.512V39.24C260.172 40.296 259.916 41.272 259.404 42.168C258.892 43.032 258.188 43.72 257.292 44.232C256.428 44.744 255.468 45 254.412 45H231.372ZM265.225 56.04V17.16H287.785C288.841 17.16 289.801 17.432 290.665 17.976C291.561 18.488 292.265 19.192 292.777 20.088C293.321 20.952 293.593 21.912 293.593 22.968V39.192C293.593 40.248 293.321 41.224 292.777 42.12C292.265 42.984 291.561 43.688 290.665 44.232C289.801 44.744 288.841 45 287.785 45H269.161V56.04H265.225ZM271.081 41.064H287.785C288.297 41.064 288.729 40.888 289.081 40.536C289.465 40.152 289.657 39.704 289.657 39.192V22.968C289.657 22.456 289.465 22.024 289.081 21.672C288.729 21.288 288.297 21.096 287.785 21.096H271.081C270.569 21.096 270.121 21.288 269.737 21.672C269.353 22.024 269.161 22.456 269.161 22.968V39.192C269.161 39.704 269.353 40.152 269.737 40.536C270.121 40.888 270.569 41.064 271.081 41.064ZM302.764 45C301.708 45 300.732 44.744 299.836 44.232C298.972 43.688 298.268 42.984 297.724 42.12C297.212 41.224 296.956 40.248 296.956 39.192V22.968C296.956 21.912 297.212 20.952 297.724 20.088C298.268 19.192 298.972 18.488 299.836 17.976C300.732 17.432 301.708 17.16 302.764 17.16H319.468C320.556 17.16 321.532 17.432 322.396 17.976C323.292 18.488 323.996 19.192 324.508 20.088C325.052 20.952 325.324 21.912 325.324 22.968V39.192C325.324 40.248 325.052 41.224 324.508 42.12C323.996 42.984 323.292 43.688 322.396 44.232C321.532 44.744 320.556 45 319.468 45H302.764ZM302.764 41.064H319.468C319.98 41.064 320.412 40.888 320.764 40.536C321.148 40.152 321.34 39.704 321.34 39.192V22.968C321.34 22.456 321.148 22.024 320.764 21.672C320.412 21.288 319.98 21.096 319.468 21.096H302.764C302.252 21.096 301.804 21.288 301.42 21.672C301.068 22.024 300.892 22.456 300.892 22.968V39.192C300.892 39.704 301.068 40.152 301.42 40.536C301.804 40.888 302.252 41.064 302.764 41.064ZM329.631 45V17.16H352.191C353.247 17.16 354.207 17.432 355.071 17.976C355.967 18.488 356.671 19.192 357.183 20.088C357.727 20.952 357.999 21.912 357.999 22.968V45H354.063V22.968C354.063 22.456 353.871 22.024 353.487 21.672C353.135 21.288 352.703 21.096 352.191 21.096H335.487C334.975 21.096 334.527 21.288 334.143 21.672C333.759 22.024 333.567 22.456 333.567 22.968V45H329.631ZM368.573 45C367.517 45 366.541 44.744 365.645 44.232C364.781 43.688 364.077 42.984 363.533 42.12C363.021 41.224 362.765 40.248 362.765 39.192V38.808H366.701V39.192C366.701 39.704 366.877 40.152 367.229 40.536C367.613 40.888 368.061 41.064 368.573 41.064H385.277C385.789 41.064 386.221 40.888 386.573 40.536C386.957 40.152 387.149 39.704 387.149 39.192V34.92C387.149 34.408 386.957 33.976 386.573 33.624C386.221 33.24 385.789 33.048 385.277 33.048H368.573C367.517 33.048 366.541 32.792 365.645 32.28C364.781 31.736 364.077 31.032 363.533 30.168C363.021 29.272 362.765 28.296 362.765 27.24V22.968C362.765 21.912 363.021 20.952 363.533 20.088C364.077 19.192 364.781 18.488 365.645 17.976C366.541 17.432 367.517 17.16 368.573 17.16H385.277C386.365 17.16 387.341 17.432 388.205 17.976C389.101 18.488 389.805 19.192 390.317 20.088C390.861 20.952 391.133 21.912 391.133 22.968V23.352H387.149V22.968C387.149 22.456 386.957 22.024 386.573 21.672C386.221 21.288 385.789 21.096 385.277 21.096H368.573C368.061 21.096 367.613 21.288 367.229 21.672C366.877 22.024 366.701 22.456 366.701 22.968V27.24C366.701 27.752 366.877 28.2 367.229 28.584C367.613 28.936 368.061 29.112 368.573 29.112H385.277C386.365 29.112 387.341 29.384 388.205 29.928C389.101 30.44 389.805 31.144 390.317 32.04C390.861 32.904 391.133 33.864 391.133 34.92V39.192C391.133 40.248 390.861 41.224 390.317 42.12C389.805 42.984 389.101 43.688 388.205 44.232C387.341 44.744 386.365 45 385.277 45H368.573ZM401.623 45C400.567 45 399.591 44.744 398.695 44.232C397.831 43.688 397.127 42.984 396.583 42.12C396.071 41.224 395.815 40.248 395.815 39.192V22.968C395.815 21.912 396.071 20.952 396.583 20.088C397.127 19.192 397.831 18.488 398.695 17.976C399.591 17.432 400.567 17.16 401.623 17.16H418.327C419.415 17.16 420.391 17.432 421.255 17.976C422.151 18.488 422.855 19.192 423.367 20.088C423.911 20.952 424.183 21.912 424.183 22.968V39.192C424.183 40.248 423.911 41.224 423.367 42.12C422.855 42.984 422.151 43.688 421.255 44.232C420.391 44.744 419.415 45 418.327 45H401.623ZM401.623 41.064H418.327C418.839 41.064 419.271 40.888 419.623 40.536C420.007 40.152 420.199 39.704 420.199 39.192V22.968C420.199 22.456 420.007 22.024 419.623 21.672C419.271 21.288 418.839 21.096 418.327 21.096H401.623C401.111 21.096 400.663 21.288 400.279 21.672C399.927 22.024 399.751 22.456 399.751 22.968V39.192C399.751 39.704 399.927 40.152 400.279 40.536C400.663 40.888 401.111 41.064 401.623 41.064ZM428.629 45V22.968C428.629 21.912 428.885 20.952 429.397 20.088C429.941 19.192 430.645 18.488 431.509 17.976C432.405 17.432 433.381 17.16 434.437 17.16H450.085V21.096H434.437C433.925 21.096 433.477 21.288 433.093 21.672C432.741 22.024 432.565 22.456 432.565 22.968V45H428.629ZM458.807 45C457.751 45 456.775 44.744 455.879 44.232C455.015 43.688 454.311 42.984 453.767 42.12C453.255 41.224 452.999 40.248 452.999 39.192V38.808H456.935V39.192C456.935 39.704 457.111 40.152 457.463 40.536C457.847 40.888 458.295 41.064 458.807 41.064H475.511C476.023 41.064 476.455 40.888 476.807 40.536C477.191 40.152 477.383 39.704 477.383 39.192V34.92C477.383 34.408 477.191 33.976 476.807 33.624C476.455 33.24 476.023 33.048 475.511 33.048H458.807C457.751 33.048 456.775 32.792 455.879 32.28C455.015 31.736 454.311 31.032 453.767 30.168C453.255 29.272 452.999 28.296 452.999 27.24V22.968C452.999 21.912 453.255 20.952 453.767 20.088C454.311 19.192 455.015 18.488 455.879 17.976C456.775 17.432 457.751 17.16 458.807 17.16H475.511C476.599 17.16 477.575 17.432 478.439 17.976C479.335 18.488 480.039 19.192 480.551 20.088C481.095 20.952 481.367 21.912 481.367 22.968V23.352H477.383V22.968C477.383 22.456 477.191 22.024 476.807 21.672C476.455 21.288 476.023 21.096 475.511 21.096H458.807C458.295 21.096 457.847 21.288 457.463 21.672C457.111 22.024 456.935 22.456 456.935 22.968V27.24C456.935 27.752 457.111 28.2 457.463 28.584C457.847 28.936 458.295 29.112 458.807 29.112H475.511C476.599 29.112 477.575 29.384 478.439 29.928C479.335 30.44 480.039 31.144 480.551 32.04C481.095 32.904 481.367 33.864 481.367 34.92V39.192C481.367 40.248 481.095 41.224 480.551 42.12C480.039 42.984 479.335 43.688 478.439 44.232C477.575 44.744 476.599 45 475.511 45H458.807Z" fill="#222730"/>
<path d="M17.7089 119V107.464H19.0049V117.704H29.2289V119H17.7089ZM32.0176 119C31.6656 119 31.3403 118.915 31.0416 118.744C30.7536 118.563 30.519 118.328 30.3376 118.04C30.167 117.741 30.0816 117.416 30.0816 117.064V111.656C30.0816 111.304 30.167 110.984 30.3376 110.696C30.519 110.397 30.7536 110.163 31.0416 109.992C31.3403 109.811 31.6656 109.72 32.0176 109.72H37.5856C37.9483 109.72 38.2736 109.811 38.5616 109.992C38.8603 110.163 39.095 110.397 39.2656 110.696C39.447 110.984 39.5376 111.304 39.5376 111.656V117.064C39.5376 117.416 39.447 117.741 39.2656 118.04C39.095 118.328 38.8603 118.563 38.5616 118.744C38.2736 118.915 37.9483 119 37.5856 119H32.0176ZM32.0176 117.688H37.5856C37.7563 117.688 37.9003 117.629 38.0176 117.512C38.1456 117.384 38.2096 117.235 38.2096 117.064V111.656C38.2096 111.485 38.1456 111.341 38.0176 111.224C37.9003 111.096 37.7563 111.032 37.5856 111.032H32.0176C31.847 111.032 31.6976 111.096 31.5696 111.224C31.4523 111.341 31.3936 111.485 31.3936 111.656V117.064C31.3936 117.235 31.4523 117.384 31.5696 117.512C31.6976 117.629 31.847 117.688 32.0176 117.688ZM41.0195 119V111.656C41.0195 111.304 41.1048 110.984 41.2755 110.696C41.4568 110.397 41.6915 110.163 41.9795 109.992C42.2782 109.811 42.6035 109.72 42.9555 109.72H48.1715V111.032H42.9555C42.7848 111.032 42.6355 111.096 42.5075 111.224C42.3902 111.341 42.3315 111.485 42.3315 111.656V119H41.0195ZM51.127 119C50.775 119 50.4497 118.915 50.151 118.744C49.863 118.563 49.6283 118.328 49.447 118.04C49.2763 117.741 49.191 117.416 49.191 117.064V111.656C49.191 111.304 49.2763 110.984 49.447 110.696C49.6283 110.397 49.863 110.163 50.151 109.992C50.4497 109.811 50.775 109.72 51.127 109.72H56.695C57.0577 109.72 57.383 109.811 57.671 109.992C57.9697 110.163 58.2043 110.397 58.375 110.696C58.5563 110.984 58.647 111.304 58.647 111.656V115.016H50.503V117.064C50.503 117.235 50.5617 117.384 50.679 117.512C50.807 117.629 50.9563 117.688 51.127 117.688H58.647V119H51.127ZM50.503 113.704H57.319V111.656C57.319 111.485 57.255 111.341 57.127 111.224C57.0097 111.096 56.8657 111.032 56.695 111.032H51.127C50.9563 111.032 50.807 111.096 50.679 111.224C50.5617 111.341 50.503 111.485 50.503 111.656V113.704ZM60.3171 119V109.72H72.5731C72.9358 109.72 73.2611 109.811 73.5491 109.992C73.8478 110.163 74.0825 110.397 74.2531 110.696C74.4238 110.984 74.5091 111.304 74.5091 111.656V119H73.2131V111.656C73.2131 111.485 73.1491 111.341 73.0211 111.224C72.8931 111.096 72.7438 111.032 72.5731 111.032H68.7171C68.5465 111.032 68.3971 111.096 68.2691 111.224C68.1518 111.341 68.0931 111.485 68.0931 111.656V119H66.7651V111.656C66.7651 111.485 66.7011 111.341 66.5731 111.224C66.4558 111.096 66.3118 111.032 66.1411 111.032H62.2691C62.0985 111.032 61.9491 111.096 61.8211 111.224C61.7038 111.341 61.6451 111.485 61.6451 111.656V119H60.3171ZM80.2851 119V109.72H81.5971V119H80.2851ZM80.2851 107.992V106.68H81.5971V107.992H80.2851ZM83.239 122.68V109.72H90.759C91.111 109.72 91.431 109.811 91.719 109.992C92.0177 110.163 92.2523 110.397 92.423 110.696C92.6043 110.984 92.695 111.304 92.695 111.656V117.064C92.695 117.416 92.6043 117.741 92.423 118.04C92.2523 118.328 92.0177 118.563 91.719 118.744C91.431 118.915 91.111 119 90.759 119H84.551V122.68H83.239ZM85.191 117.688H90.759C90.9297 117.688 91.0737 117.629 91.191 117.512C91.319 117.384 91.383 117.235 91.383 117.064V111.656C91.383 111.485 91.319 111.341 91.191 111.224C91.0737 111.096 90.9297 111.032 90.759 111.032H85.191C85.0203 111.032 84.871 111.096 84.743 111.224C84.615 111.341 84.551 111.485 84.551 111.656V117.064C84.551 117.235 84.615 117.384 84.743 117.512C84.871 117.629 85.0203 117.688 85.191 117.688ZM95.8603 119C95.5083 119 95.1829 118.915 94.8843 118.744C94.5963 118.563 94.3616 118.328 94.1803 118.04C94.0096 117.741 93.9243 117.416 93.9243 117.064V116.936H95.2363V117.064C95.2363 117.235 95.2949 117.384 95.4123 117.512C95.5403 117.629 95.6896 117.688 95.8603 117.688H101.428C101.599 117.688 101.743 117.629 101.86 117.512C101.988 117.384 102.052 117.235 102.052 117.064V115.64C102.052 115.469 101.988 115.325 101.86 115.208C101.743 115.08 101.599 115.016 101.428 115.016H95.8603C95.5083 115.016 95.1829 114.931 94.8843 114.76C94.5963 114.579 94.3616 114.344 94.1803 114.056C94.0096 113.757 93.9243 113.432 93.9243 113.08V111.656C93.9243 111.304 94.0096 110.984 94.1803 110.696C94.3616 110.397 94.5963 110.163 94.8843 109.992C95.1829 109.811 95.5083 109.72 95.8603 109.72H101.428C101.791 109.72 102.116 109.811 102.404 109.992C102.703 110.163 102.938 110.397 103.108 110.696C103.29 110.984 103.38 111.304 103.38 111.656V111.784H102.052V111.656C102.052 111.485 101.988 111.341 101.86 111.224C101.743 111.096 101.599 111.032 101.428 111.032H95.8603C95.6896 111.032 95.5403 111.096 95.4123 111.224C95.2949 111.341 95.2363 111.485 95.2363 111.656V113.08C95.2363 113.251 95.2949 113.4 95.4123 113.528C95.5403 113.645 95.6896 113.704 95.8603 113.704H101.428C101.791 113.704 102.116 113.795 102.404 113.976C102.703 114.147 102.938 114.381 103.108 114.68C103.29 114.968 103.38 115.288 103.38 115.64V117.064C103.38 117.416 103.29 117.741 103.108 118.04C102.938 118.328 102.703 118.563 102.404 118.744C102.116 118.915 101.791 119 101.428 119H95.8603ZM106.597 119C106.245 119 105.919 118.915 105.621 118.744C105.333 118.563 105.098 118.328 104.917 118.04C104.746 117.741 104.661 117.416 104.661 117.064V109.72H105.973V117.064C105.973 117.235 106.031 117.384 106.149 117.512C106.277 117.629 106.426 117.688 106.597 117.688H112.165C112.335 117.688 112.485 117.629 112.613 117.512C112.741 117.384 112.805 117.235 112.805 117.064V109.72H114.117V117.064C114.117 117.416 114.026 117.741 113.845 118.04C113.674 118.328 113.439 118.563 113.141 118.744C112.853 118.915 112.527 119 112.165 119H106.597ZM115.489 119V109.72H127.745C128.108 109.72 128.433 109.811 128.721 109.992C129.02 110.163 129.254 110.397 129.425 110.696C129.596 110.984 129.681 111.304 129.681 111.656V119H128.385V111.656C128.385 111.485 128.321 111.341 128.193 111.224C128.065 111.096 127.916 111.032 127.745 111.032H123.889C123.718 111.032 123.569 111.096 123.441 111.224C123.324 111.341 123.265 111.485 123.265 111.656V119H121.937V111.656C121.937 111.485 121.873 111.341 121.745 111.224C121.628 111.096 121.484 111.032 121.313 111.032H117.441C117.27 111.032 117.121 111.096 116.993 111.224C116.876 111.341 116.817 111.485 116.817 111.656V119H115.489ZM136.945 119C136.582 119 136.252 118.915 135.953 118.744C135.665 118.563 135.43 118.328 135.249 118.04C135.078 117.741 134.993 117.416 134.993 117.064V111.656C134.993 111.304 135.078 110.984 135.249 110.696C135.43 110.397 135.665 110.163 135.953 109.992C136.252 109.811 136.582 109.72 136.945 109.72H143.137V106.68H144.449V119H136.945ZM136.945 117.688H142.513C142.684 117.688 142.828 117.629 142.945 117.512C143.073 117.384 143.137 117.235 143.137 117.064V111.656C143.137 111.485 143.073 111.341 142.945 111.224C142.828 111.096 142.684 111.032 142.513 111.032H136.945C136.774 111.032 136.625 111.096 136.497 111.224C136.38 111.341 136.321 111.485 136.321 111.656V117.064C136.321 117.235 136.38 117.384 136.497 117.512C136.625 117.629 136.774 117.688 136.945 117.688ZM147.69 119C147.338 119 147.012 118.915 146.714 118.744C146.426 118.563 146.191 118.328 146.01 118.04C145.839 117.741 145.754 117.416 145.754 117.064V111.656C145.754 111.304 145.839 110.984 146.01 110.696C146.191 110.397 146.426 110.163 146.714 109.992C147.012 109.811 147.338 109.72 147.69 109.72H153.258C153.62 109.72 153.946 109.811 154.234 109.992C154.532 110.163 154.767 110.397 154.938 110.696C155.119 110.984 155.21 111.304 155.21 111.656V117.064C155.21 117.416 155.119 117.741 154.938 118.04C154.767 118.328 154.532 118.563 154.234 118.744C153.946 118.915 153.62 119 153.258 119H147.69ZM147.69 117.688H153.258C153.428 117.688 153.572 117.629 153.69 117.512C153.818 117.384 153.882 117.235 153.882 117.064V111.656C153.882 111.485 153.818 111.341 153.69 111.224C153.572 111.096 153.428 111.032 153.258 111.032H147.69C147.519 111.032 147.37 111.096 147.242 111.224C147.124 111.341 147.066 111.485 147.066 111.656V117.064C147.066 117.235 147.124 117.384 147.242 117.512C147.37 117.629 147.519 117.688 147.69 117.688ZM158.471 119C158.119 119 157.794 118.915 157.495 118.744C157.207 118.563 156.972 118.328 156.791 118.04C156.62 117.741 156.535 117.416 156.535 117.064V106.68H157.847V117.064C157.847 117.235 157.906 117.384 158.023 117.512C158.151 117.629 158.3 117.688 158.471 117.688H160.039V119H158.471ZM163.127 119C162.775 119 162.45 118.915 162.151 118.744C161.863 118.563 161.628 118.328 161.447 118.04C161.276 117.741 161.191 117.416 161.191 117.064V111.656C161.191 111.304 161.276 110.984 161.447 110.696C161.628 110.397 161.863 110.163 162.151 109.992C162.45 109.811 162.775 109.72 163.127 109.72H168.695C169.058 109.72 169.383 109.811 169.671 109.992C169.97 110.163 170.204 110.397 170.375 110.696C170.556 110.984 170.647 111.304 170.647 111.656V117.064C170.647 117.416 170.556 117.741 170.375 118.04C170.204 118.328 169.97 118.563 169.671 118.744C169.383 118.915 169.058 119 168.695 119H163.127ZM163.127 117.688H168.695C168.866 117.688 169.01 117.629 169.127 117.512C169.255 117.384 169.319 117.235 169.319 117.064V111.656C169.319 111.485 169.255 111.341 169.127 111.224C169.01 111.096 168.866 111.032 168.695 111.032H163.127C162.956 111.032 162.807 111.096 162.679 111.224C162.562 111.341 162.503 111.485 162.503 111.656V117.064C162.503 117.235 162.562 117.384 162.679 117.512C162.807 117.629 162.956 117.688 163.127 117.688ZM172.129 119V111.656C172.129 111.304 172.214 110.984 172.385 110.696C172.566 110.397 172.801 110.163 173.089 109.992C173.388 109.811 173.713 109.72 174.065 109.72H179.281V111.032H174.065C173.894 111.032 173.745 111.096 173.617 111.224C173.5 111.341 173.441 111.485 173.441 111.656V119H172.129ZM186.548 119C186.196 119 185.87 118.915 185.572 118.744C185.284 118.563 185.049 118.328 184.868 118.04C184.697 117.741 184.612 117.416 184.612 117.064V116.936H185.924V117.064C185.924 117.235 185.982 117.384 186.1 117.512C186.228 117.629 186.377 117.688 186.548 117.688H192.116C192.286 117.688 192.43 117.629 192.548 117.512C192.676 117.384 192.74 117.235 192.74 117.064V115.64C192.74 115.469 192.676 115.325 192.548 115.208C192.43 115.08 192.286 115.016 192.116 115.016H186.548C186.196 115.016 185.87 114.931 185.572 114.76C185.284 114.579 185.049 114.344 184.868 114.056C184.697 113.757 184.612 113.432 184.612 113.08V111.656C184.612 111.304 184.697 110.984 184.868 110.696C185.049 110.397 185.284 110.163 185.572 109.992C185.87 109.811 186.196 109.72 186.548 109.72H192.116C192.478 109.72 192.804 109.811 193.092 109.992C193.39 110.163 193.625 110.397 193.796 110.696C193.977 110.984 194.068 111.304 194.068 111.656V111.784H192.74V111.656C192.74 111.485 192.676 111.341 192.548 111.224C192.43 111.096 192.286 111.032 192.116 111.032H186.548C186.377 111.032 186.228 111.096 186.1 111.224C185.982 111.341 185.924 111.485 185.924 111.656V113.08C185.924 113.251 185.982 113.4 186.1 113.528C186.228 113.645 186.377 113.704 186.548 113.704H192.116C192.478 113.704 192.804 113.795 193.092 113.976C193.39 114.147 193.625 114.381 193.796 114.68C193.977 114.968 194.068 115.288 194.068 115.64V117.064C194.068 117.416 193.977 117.741 193.796 118.04C193.625 118.328 193.39 118.563 193.092 118.744C192.804 118.915 192.478 119 192.116 119H186.548ZM195.645 119V109.72H196.957V119H195.645ZM195.645 107.992V106.68H196.957V107.992H195.645ZM200.925 119C200.562 119 200.231 118.915 199.933 118.744C199.645 118.563 199.415 118.328 199.245 118.04C199.074 117.741 198.989 117.416 198.989 117.064V106.68H200.301V109.72H204.317V111.032H200.301V117.064C200.301 117.235 200.359 117.384 200.477 117.512C200.605 117.629 200.754 117.688 200.925 117.688H204.317V119H200.925ZM211.831 119C211.479 119 211.153 118.915 210.855 118.744C210.567 118.563 210.332 118.328 210.151 118.04C209.98 117.741 209.895 117.416 209.895 117.064V113.704H218.023V111.656C218.023 111.485 217.959 111.341 217.831 111.224C217.713 111.096 217.569 111.032 217.399 111.032H209.895V109.72H217.399C217.761 109.72 218.087 109.811 218.375 109.992C218.673 110.163 218.908 110.397 219.079 110.696C219.26 110.984 219.351 111.304 219.351 111.656V119H211.831ZM211.831 117.688H218.023V115.016H211.207V117.064C211.207 117.235 211.265 117.384 211.383 117.512C211.511 117.629 211.66 117.688 211.831 117.688ZM220.723 119V109.72H232.979C233.342 109.72 233.667 109.811 233.955 109.992C234.254 110.163 234.489 110.397 234.659 110.696C234.83 110.984 234.915 111.304 234.915 111.656V119H233.619V111.656C233.619 111.485 233.555 111.341 233.427 111.224C233.299 111.096 233.15 111.032 232.979 111.032H229.123C228.953 111.032 228.803 111.096 228.675 111.224C228.558 111.341 228.499 111.485 228.499 111.656V119H227.171V111.656C227.171 111.485 227.107 111.341 226.979 111.224C226.862 111.096 226.718 111.032 226.547 111.032H222.675C222.505 111.032 222.355 111.096 222.227 111.224C222.11 111.341 222.051 111.485 222.051 111.656V119H220.723ZM238.252 119C237.9 119 237.575 118.915 237.276 118.744C236.988 118.563 236.753 118.328 236.572 118.04C236.401 117.741 236.316 117.416 236.316 117.064V111.656C236.316 111.304 236.401 110.984 236.572 110.696C236.753 110.397 236.988 110.163 237.276 109.992C237.575 109.811 237.9 109.72 238.252 109.72H243.82C244.183 109.72 244.508 109.811 244.796 109.992C245.095 110.163 245.329 110.397 245.5 110.696C245.681 110.984 245.772 111.304 245.772 111.656V115.016H237.628V117.064C237.628 117.235 237.687 117.384 237.804 117.512C237.932 117.629 238.081 117.688 238.252 117.688H245.772V119H238.252ZM237.628 113.704H244.444V111.656C244.444 111.485 244.38 111.341 244.252 111.224C244.135 111.096 243.991 111.032 243.82 111.032H238.252C238.081 111.032 237.932 111.096 237.804 111.224C237.687 111.341 237.628 111.485 237.628 111.656V113.704ZM249.362 119C248.999 119 248.669 118.915 248.37 118.744C248.082 118.563 247.853 118.328 247.682 118.04C247.511 117.741 247.426 117.416 247.426 117.064V106.68H248.738V109.72H252.754V111.032H248.738V117.064C248.738 117.235 248.797 117.384 248.914 117.512C249.042 117.629 249.191 117.688 249.362 117.688H252.754V119H249.362ZM254.005 121.096V117.688H255.317V119.256C255.317 119.544 255.258 119.811 255.141 120.056C255.034 120.301 254.879 120.515 254.677 120.696C254.485 120.877 254.261 121.011 254.005 121.096ZM263.346 119C262.994 119 262.668 118.915 262.37 118.744C262.082 118.563 261.847 118.328 261.666 118.04C261.495 117.741 261.41 117.416 261.41 117.064V111.656C261.41 111.304 261.495 110.984 261.666 110.696C261.847 110.397 262.082 110.163 262.37 109.992C262.668 109.811 262.994 109.72 263.346 109.72H270.834V111.032H263.346C263.175 111.032 263.026 111.096 262.898 111.224C262.78 111.341 262.722 111.485 262.722 111.656V117.064C262.722 117.235 262.78 117.384 262.898 117.512C263.026 117.629 263.175 117.688 263.346 117.688H270.866V119H263.346ZM274.471 119C274.119 119 273.793 118.915 273.495 118.744C273.207 118.563 272.972 118.328 272.791 118.04C272.62 117.741 272.535 117.416 272.535 117.064V111.656C272.535 111.304 272.62 110.984 272.791 110.696C272.972 110.397 273.207 110.163 273.495 109.992C273.793 109.811 274.119 109.72 274.471 109.72H280.039C280.401 109.72 280.727 109.811 281.015 109.992C281.313 110.163 281.548 110.397 281.719 110.696C281.9 110.984 281.991 111.304 281.991 111.656V117.064C281.991 117.416 281.9 117.741 281.719 118.04C281.548 118.328 281.313 118.563 281.015 118.744C280.727 118.915 280.401 119 280.039 119H274.471ZM274.471 117.688H280.039C280.209 117.688 280.353 117.629 280.471 117.512C280.599 117.384 280.663 117.235 280.663 117.064V111.656C280.663 111.485 280.599 111.341 280.471 111.224C280.353 111.096 280.209 111.032 280.039 111.032H274.471C274.3 111.032 274.151 111.096 274.023 111.224C273.905 111.341 273.847 111.485 273.847 111.656V117.064C273.847 117.235 273.905 117.384 274.023 117.512C274.151 117.629 274.3 117.688 274.471 117.688ZM283.427 119V109.72H290.947C291.299 109.72 291.619 109.811 291.907 109.992C292.205 110.163 292.44 110.397 292.611 110.696C292.792 110.984 292.883 111.304 292.883 111.656V119H291.571V111.656C291.571 111.485 291.507 111.341 291.378 111.224C291.261 111.096 291.117 111.032 290.947 111.032H285.379C285.208 111.032 285.059 111.096 284.931 111.224C284.803 111.341 284.739 111.485 284.739 111.656V119H283.427ZM296.407 119C296.055 119 295.73 118.915 295.431 118.744C295.143 118.563 294.908 118.328 294.727 118.04C294.556 117.741 294.471 117.416 294.471 117.064V116.936H295.783V117.064C295.783 117.235 295.842 117.384 295.959 117.512C296.087 117.629 296.236 117.688 296.407 117.688H301.975C302.146 117.688 302.29 117.629 302.407 117.512C302.535 117.384 302.599 117.235 302.599 117.064V115.64C302.599 115.469 302.535 115.325 302.407 115.208C302.29 115.08 302.146 115.016 301.975 115.016H296.407C296.055 115.016 295.73 114.931 295.431 114.76C295.143 114.579 294.908 114.344 294.727 114.056C294.556 113.757 294.471 113.432 294.471 113.08V111.656C294.471 111.304 294.556 110.984 294.727 110.696C294.908 110.397 295.143 110.163 295.431 109.992C295.73 109.811 296.055 109.72 296.407 109.72H301.975C302.338 109.72 302.663 109.811 302.951 109.992C303.25 110.163 303.484 110.397 303.655 110.696C303.836 110.984 303.927 111.304 303.927 111.656V111.784H302.599V111.656C302.599 111.485 302.535 111.341 302.407 111.224C302.29 111.096 302.146 111.032 301.975 111.032H296.407C296.236 111.032 296.087 111.096 295.959 111.224C295.842 111.341 295.783 111.485 295.783 111.656V113.08C295.783 113.251 295.842 113.4 295.959 113.528C296.087 113.645 296.236 113.704 296.407 113.704H301.975C302.338 113.704 302.663 113.795 302.951 113.976C303.25 114.147 303.484 114.381 303.655 114.68C303.836 114.968 303.927 115.288 303.927 115.64V117.064C303.927 117.416 303.836 117.741 303.655 118.04C303.484 118.328 303.25 118.563 302.951 118.744C302.663 118.915 302.338 119 301.975 119H296.407ZM307.19 119C306.838 119 306.512 118.915 306.214 118.744C305.926 118.563 305.691 118.328 305.51 118.04C305.339 117.741 305.254 117.416 305.254 117.064V111.656C305.254 111.304 305.339 110.984 305.51 110.696C305.691 110.397 305.926 110.163 306.214 109.992C306.512 109.811 306.838 109.72 307.19 109.72H312.758C313.12 109.72 313.446 109.811 313.734 109.992C314.032 110.163 314.267 110.397 314.438 110.696C314.619 110.984 314.71 111.304 314.71 111.656V115.016H306.566V117.064C306.566 117.235 306.624 117.384 306.742 117.512C306.87 117.629 307.019 117.688 307.19 117.688H314.71V119H307.19ZM306.566 113.704H313.382V111.656C313.382 111.485 313.318 111.341 313.19 111.224C313.072 111.096 312.928 111.032 312.758 111.032H307.19C307.019 111.032 306.87 111.096 306.742 111.224C306.624 111.341 306.566 111.485 306.566 111.656V113.704ZM317.955 119C317.603 119 317.278 118.915 316.979 118.744C316.691 118.563 316.456 118.328 316.275 118.04C316.104 117.741 316.019 117.416 316.019 117.064V111.656C316.019 111.304 316.104 110.984 316.275 110.696C316.456 110.397 316.691 110.163 316.979 109.992C317.278 109.811 317.603 109.72 317.955 109.72H325.443V111.032H317.955C317.784 111.032 317.635 111.096 317.507 111.224C317.39 111.341 317.331 111.485 317.331 111.656V117.064C317.331 117.235 317.39 117.384 317.507 117.512C317.635 117.629 317.784 117.688 317.955 117.688H325.475V119H317.955ZM328.706 119C328.343 119 328.013 118.915 327.714 118.744C327.426 118.563 327.197 118.328 327.026 118.04C326.855 117.741 326.77 117.416 326.77 117.064V106.68H328.082V109.72H332.098V111.032H328.082V117.064C328.082 117.235 328.141 117.384 328.258 117.512C328.386 117.629 328.535 117.688 328.706 117.688H332.098V119H328.706ZM335.236 119C334.884 119 334.559 118.915 334.26 118.744C333.972 118.563 333.738 118.328 333.556 118.04C333.386 117.741 333.3 117.416 333.3 117.064V111.656C333.3 111.304 333.386 110.984 333.556 110.696C333.738 110.397 333.972 110.163 334.26 109.992C334.559 109.811 334.884 109.72 335.236 109.72H340.804C341.167 109.72 341.492 109.811 341.78 109.992C342.079 110.163 342.314 110.397 342.484 110.696C342.666 110.984 342.756 111.304 342.756 111.656V115.016H334.612V117.064C334.612 117.235 334.671 117.384 334.788 117.512C334.916 117.629 335.066 117.688 335.236 117.688H342.756V119H335.236ZM334.612 113.704H341.428V111.656C341.428 111.485 341.364 111.341 341.236 111.224C341.119 111.096 340.975 111.032 340.804 111.032H335.236C335.066 111.032 334.916 111.096 334.788 111.224C334.671 111.341 334.612 111.485 334.612 111.656V113.704ZM346.347 119C345.984 119 345.653 118.915 345.355 118.744C345.067 118.563 344.837 118.328 344.667 118.04C344.496 117.741 344.411 117.416 344.411 117.064V106.68H345.723V109.72H349.739V111.032H345.723V117.064C345.723 117.235 345.781 117.384 345.899 117.512C346.027 117.629 346.176 117.688 346.347 117.688H349.739V119H346.347ZM352.909 119C352.557 119 352.232 118.915 351.933 118.744C351.645 118.563 351.41 118.328 351.229 118.04C351.058 117.741 350.973 117.416 350.973 117.064V109.72H352.285V117.064C352.285 117.235 352.344 117.384 352.461 117.512C352.589 117.629 352.738 117.688 352.909 117.688H358.477C358.648 117.688 358.797 117.629 358.925 117.512C359.053 117.384 359.117 117.235 359.117 117.064V109.72H360.429V117.064C360.429 117.416 360.338 117.741 360.157 118.04C359.986 118.328 359.752 118.563 359.453 118.744C359.165 118.915 358.84 119 358.477 119H352.909ZM362.082 119V111.656C362.082 111.304 362.167 110.984 362.338 110.696C362.519 110.397 362.754 110.163 363.042 109.992C363.341 109.811 363.666 109.72 364.018 109.72H369.234V111.032H364.018C363.847 111.032 363.698 111.096 363.57 111.224C363.453 111.341 363.394 111.485 363.394 111.656V119H362.082ZM376.565 119C376.213 119 375.888 118.915 375.589 118.744C375.301 118.563 375.066 118.328 374.885 118.04C374.714 117.741 374.629 117.416 374.629 117.064V113.704H382.757V111.656C382.757 111.485 382.693 111.341 382.565 111.224C382.448 111.096 382.304 111.032 382.133 111.032H374.629V109.72H382.133C382.496 109.72 382.821 109.811 383.109 109.992C383.408 110.163 383.642 110.397 383.813 110.696C383.994 110.984 384.085 111.304 384.085 111.656V119H376.565ZM376.565 117.688H382.757V115.016H375.941V117.064C375.941 117.235 376 117.384 376.117 117.512C376.245 117.629 376.394 117.688 376.565 117.688ZM387.226 119C386.864 119 386.533 118.915 386.234 118.744C385.946 118.563 385.712 118.328 385.53 118.04C385.36 117.741 385.274 117.416 385.274 117.064V111.656C385.274 111.304 385.36 110.984 385.53 110.696C385.712 110.397 385.946 110.163 386.234 109.992C386.533 109.811 386.864 109.72 387.226 109.72H393.418V106.68H394.73V119H387.226ZM387.226 117.688H392.794C392.965 117.688 393.109 117.629 393.226 117.512C393.354 117.384 393.418 117.235 393.418 117.064V111.656C393.418 111.485 393.354 111.341 393.226 111.224C393.109 111.096 392.965 111.032 392.794 111.032H387.226C387.056 111.032 386.906 111.096 386.778 111.224C386.661 111.341 386.602 111.485 386.602 111.656V117.064C386.602 117.235 386.661 117.384 386.778 117.512C386.906 117.629 387.056 117.688 387.226 117.688ZM396.41 119V109.72H397.722V119H396.41ZM396.41 107.992V106.68H397.722V107.992H396.41ZM399.364 122.68V109.72H406.884C407.236 109.72 407.556 109.811 407.844 109.992C408.143 110.163 408.377 110.397 408.548 110.696C408.729 110.984 408.82 111.304 408.82 111.656V117.064C408.82 117.416 408.729 117.741 408.548 118.04C408.377 118.328 408.143 118.563 407.844 118.744C407.556 118.915 407.236 119 406.884 119H400.676V122.68H399.364ZM401.316 117.688H406.884C407.055 117.688 407.199 117.629 407.316 117.512C407.444 117.384 407.508 117.235 407.508 117.064V111.656C407.508 111.485 407.444 111.341 407.316 111.224C407.199 111.096 407.055 111.032 406.884 111.032H401.316C401.145 111.032 400.996 111.096 400.868 111.224C400.74 111.341 400.676 111.485 400.676 111.656V117.064C400.676 117.235 400.74 117.384 400.868 117.512C400.996 117.629 401.145 117.688 401.316 117.688ZM410.191 119V109.72H411.503V119H410.191ZM410.191 107.992V106.68H411.503V107.992H410.191ZM415.392 119C415.04 119 414.714 118.915 414.416 118.744C414.128 118.563 413.893 118.328 413.712 118.04C413.541 117.741 413.456 117.416 413.456 117.064V116.936H414.768V117.064C414.768 117.235 414.826 117.384 414.944 117.512C415.072 117.629 415.221 117.688 415.392 117.688H420.96C421.13 117.688 421.274 117.629 421.392 117.512C421.52 117.384 421.584 117.235 421.584 117.064V115.64C421.584 115.469 421.52 115.325 421.392 115.208C421.274 115.08 421.13 115.016 420.96 115.016H415.392C415.04 115.016 414.714 114.931 414.416 114.76C414.128 114.579 413.893 114.344 413.712 114.056C413.541 113.757 413.456 113.432 413.456 113.08V111.656C413.456 111.304 413.541 110.984 413.712 110.696C413.893 110.397 414.128 110.163 414.416 109.992C414.714 109.811 415.04 109.72 415.392 109.72H420.96C421.322 109.72 421.648 109.811 421.936 109.992C422.234 110.163 422.469 110.397 422.64 110.696C422.821 110.984 422.912 111.304 422.912 111.656V111.784H421.584V111.656C421.584 111.485 421.52 111.341 421.392 111.224C421.274 111.096 421.13 111.032 420.96 111.032H415.392C415.221 111.032 415.072 111.096 414.944 111.224C414.826 111.341 414.768 111.485 414.768 111.656V113.08C414.768 113.251 414.826 113.4 414.944 113.528C415.072 113.645 415.221 113.704 415.392 113.704H420.96C421.322 113.704 421.648 113.795 421.936 113.976C422.234 114.147 422.469 114.381 422.64 114.68C422.821 114.968 422.912 115.288 422.912 115.64V117.064C422.912 117.416 422.821 117.741 422.64 118.04C422.469 118.328 422.234 118.563 421.936 118.744C421.648 118.915 421.322 119 420.96 119H415.392ZM426.111 119C425.759 119 425.434 118.915 425.135 118.744C424.847 118.563 424.613 118.328 424.431 118.04C424.261 117.741 424.175 117.416 424.175 117.064V111.656C424.175 111.304 424.261 110.984 424.431 110.696C424.613 110.397 424.847 110.163 425.135 109.992C425.434 109.811 425.759 109.72 426.111 109.72H433.599V111.032H426.111C425.941 111.032 425.791 111.096 425.663 111.224C425.546 111.341 425.487 111.485 425.487 111.656V117.064C425.487 117.235 425.546 117.384 425.663 117.512C425.791 117.629 425.941 117.688 426.111 117.688H433.631V119H426.111ZM435.316 119V109.72H436.628V119H435.316ZM435.316 107.992V106.68H436.628V107.992H435.316ZM438.442 119V109.72H445.962C446.314 109.72 446.634 109.811 446.922 109.992C447.221 110.163 447.455 110.397 447.626 110.696C447.807 110.984 447.898 111.304 447.898 111.656V119H446.586V111.656C446.586 111.485 446.522 111.341 446.394 111.224C446.277 111.096 446.133 111.032 445.962 111.032H440.394C440.223 111.032 440.074 111.096 439.946 111.224C439.818 111.341 439.754 111.485 439.754 111.656V119H438.442ZM451.087 122.664V121.336H456.879C457.049 121.336 457.193 121.272 457.311 121.144C457.439 121.027 457.503 120.883 457.503 120.712V119H451.311C450.959 119 450.633 118.915 450.335 118.744C450.047 118.563 449.812 118.328 449.631 118.04C449.46 117.741 449.375 117.416 449.375 117.064V111.656C449.375 111.304 449.46 110.984 449.631 110.696C449.812 110.397 450.047 110.163 450.335 109.992C450.633 109.811 450.959 109.72 451.311 109.72H456.879C457.241 109.72 457.567 109.811 457.855 109.992C458.153 110.163 458.388 110.397 458.559 110.696C458.729 110.984 458.815 111.304 458.815 111.656V120.712C458.815 121.075 458.729 121.4 458.559 121.688C458.388 121.987 458.153 122.221 457.855 122.392C457.567 122.573 457.241 122.664 456.879 122.664H451.087ZM451.311 117.688H456.879C457.049 117.688 457.193 117.629 457.311 117.512C457.439 117.384 457.503 117.235 457.503 117.064V111.656C457.503 111.485 457.439 111.341 457.311 111.224C457.193 111.096 457.049 111.032 456.879 111.032H451.311C451.14 111.032 450.991 111.096 450.863 111.224C450.745 111.341 450.687 111.485 450.687 111.656V117.064C450.687 117.235 450.745 117.384 450.863 117.512C450.991 117.629 451.14 117.688 451.311 117.688ZM466.752 119C466.4 119 466.075 118.915 465.776 118.744C465.488 118.563 465.253 118.328 465.072 118.04C464.901 117.741 464.816 117.416 464.816 117.064V111.656C464.816 111.304 464.901 110.984 465.072 110.696C465.253 110.397 465.488 110.163 465.776 109.992C466.075 109.811 466.4 109.72 466.752 109.72H472.32C472.683 109.72 473.008 109.811 473.296 109.992C473.595 110.163 473.829 110.397 474 110.696C474.181 110.984 474.272 111.304 474.272 111.656V115.016H466.128V117.064C466.128 117.235 466.187 117.384 466.304 117.512C466.432 117.629 466.581 117.688 466.752 117.688H474.272V119H466.752ZM466.128 113.704H472.944V111.656C472.944 111.485 472.88 111.341 472.752 111.224C472.635 111.096 472.491 111.032 472.32 111.032H466.752C466.581 111.032 466.432 111.096 466.304 111.224C466.187 111.341 466.128 111.485 466.128 111.656V113.704ZM477.534 119C477.182 119 476.856 118.915 476.558 118.744C476.27 118.563 476.035 118.328 475.854 118.04C475.683 117.741 475.598 117.416 475.598 117.064V106.68H476.91V117.064C476.91 117.235 476.968 117.384 477.086 117.512C477.214 117.629 477.363 117.688 477.534 117.688H479.102V119H477.534ZM480.426 119V109.72H481.738V119H480.426ZM480.426 107.992V106.68H481.738V107.992H480.426ZM485.706 119C485.343 119 485.013 118.915 484.714 118.744C484.426 118.563 484.197 118.328 484.026 118.04C483.855 117.741 483.77 117.416 483.77 117.064V106.68H485.082V109.72H489.098V111.032H485.082V117.064C485.082 117.235 485.141 117.384 485.258 117.512C485.386 117.629 485.535 117.688 485.706 117.688H489.098V119H485.706ZM490.348 119V117.688H491.66V119H490.348ZM498.194 119V107.48H508.706V108.776H499.49V112.584H506.898V113.896H499.49V119H498.194ZM511.58 119C511.228 119 510.903 118.915 510.604 118.744C510.316 118.563 510.081 118.328 509.9 118.04C509.729 117.741 509.644 117.416 509.644 117.064V111.656C509.644 111.304 509.729 110.984 509.9 110.696C510.081 110.397 510.316 110.163 510.604 109.992C510.903 109.811 511.228 109.72 511.58 109.72H517.148C517.511 109.72 517.836 109.811 518.124 109.992C518.423 110.163 518.657 110.397 518.828 110.696C519.009 110.984 519.1 111.304 519.1 111.656V115.016H510.956V117.064C510.956 117.235 511.015 117.384 511.132 117.512C511.26 117.629 511.409 117.688 511.58 117.688H519.1V119H511.58ZM510.956 113.704H517.772V111.656C517.772 111.485 517.708 111.341 517.58 111.224C517.463 111.096 517.319 111.032 517.148 111.032H511.58C511.409 111.032 511.26 111.096 511.132 111.224C511.015 111.341 510.956 111.485 510.956 111.656V113.704ZM522.362 119C522.01 119 521.684 118.915 521.386 118.744C521.098 118.563 520.863 118.328 520.682 118.04C520.511 117.741 520.426 117.416 520.426 117.064V106.68H521.738V117.064C521.738 117.235 521.796 117.384 521.914 117.512C522.042 117.629 522.191 117.688 522.362 117.688H523.93V119H522.362ZM525.254 119V109.72H526.566V119H525.254ZM525.254 107.992V106.68H526.566V107.992H525.254ZM530.454 119C530.102 119 529.777 118.915 529.478 118.744C529.19 118.563 528.955 118.328 528.774 118.04C528.603 117.741 528.518 117.416 528.518 117.064V116.936H529.83V117.064C529.83 117.235 529.889 117.384 530.006 117.512C530.134 117.629 530.283 117.688 530.454 117.688H536.022C536.193 117.688 536.337 117.629 536.454 117.512C536.582 117.384 536.646 117.235 536.646 117.064V115.64C536.646 115.469 536.582 115.325 536.454 115.208C536.337 115.08 536.193 115.016 536.022 115.016H530.454C530.102 115.016 529.777 114.931 529.478 114.76C529.19 114.579 528.955 114.344 528.774 114.056C528.603 113.757 528.518 113.432 528.518 113.08V111.656C528.518 111.304 528.603 110.984 528.774 110.696C528.955 110.397 529.19 110.163 529.478 109.992C529.777 109.811 530.102 109.72 530.454 109.72H536.022C536.385 109.72 536.71 109.811 536.998 109.992C537.297 110.163 537.531 110.397 537.702 110.696C537.883 110.984 537.974 111.304 537.974 111.656V111.784H536.646V111.656C536.646 111.485 536.582 111.341 536.454 111.224C536.337 111.096 536.193 111.032 536.022 111.032H530.454C530.283 111.032 530.134 111.096 530.006 111.224C529.889 111.341 529.83 111.485 529.83 111.656V113.08C529.83 113.251 529.889 113.4 530.006 113.528C530.134 113.645 530.283 113.704 530.454 113.704H536.022C536.385 113.704 536.71 113.795 536.998 113.976C537.297 114.147 537.531 114.381 537.702 114.68C537.883 114.968 537.974 115.288 537.974 115.64V117.064C537.974 117.416 537.883 117.741 537.702 118.04C537.531 118.328 537.297 118.563 536.998 118.744C536.71 118.915 536.385 119 536.022 119H530.454ZM539.583 121.096V117.688H540.895V119.256C540.895 119.544 540.836 119.811 540.719 120.056C540.612 120.301 540.457 120.515 540.255 120.696C540.063 120.877 539.839 121.011 539.583 121.096ZM547.036 119V109.72H554.556C554.908 109.72 555.228 109.811 555.516 109.992C555.815 110.163 556.049 110.397 556.22 110.696C556.401 110.984 556.492 111.304 556.492 111.656V119H555.18V111.656C555.18 111.485 555.116 111.341 554.988 111.224C554.871 111.096 554.727 111.032 554.556 111.032H548.988C548.817 111.032 548.668 111.096 548.54 111.224C548.412 111.341 548.348 111.485 548.348 111.656V119H547.036ZM560.065 119C559.713 119 559.387 118.915 559.089 118.744C558.801 118.563 558.566 118.328 558.385 118.04C558.214 117.741 558.129 117.416 558.129 117.064V111.656C558.129 111.304 558.214 110.984 558.385 110.696C558.566 110.397 558.801 110.163 559.089 109.992C559.387 109.811 559.713 109.72 560.065 109.72H565.633C565.995 109.72 566.321 109.811 566.609 109.992C566.907 110.163 567.142 110.397 567.312 110.696C567.494 110.984 567.585 111.304 567.585 111.656V115.016H559.441V117.064C559.441 117.235 559.499 117.384 559.617 117.512C559.745 117.629 559.894 117.688 560.065 117.688H567.585V119H560.065ZM559.441 113.704H566.257V111.656C566.257 111.485 566.193 111.341 566.065 111.224C565.947 111.096 565.803 111.032 565.633 111.032H560.065C559.894 111.032 559.745 111.096 559.617 111.224C559.499 111.341 559.441 111.485 559.441 111.656V113.704ZM570.83 119C570.478 119 570.153 118.915 569.854 118.744C569.566 118.563 569.331 118.328 569.15 118.04C568.979 117.741 568.894 117.416 568.894 117.064V111.656C568.894 111.304 568.979 110.984 569.15 110.696C569.331 110.397 569.566 110.163 569.854 109.992C570.153 109.811 570.478 109.72 570.83 109.72H578.318V111.032H570.83C570.659 111.032 570.51 111.096 570.382 111.224C570.265 111.341 570.206 111.485 570.206 111.656V117.064C570.206 117.235 570.265 117.384 570.382 117.512C570.51 117.629 570.659 117.688 570.83 117.688H578.35V119H570.83ZM86.6481 145C86.2855 145 85.9548 144.915 85.6561 144.744C85.3681 144.563 85.1335 144.328 84.9521 144.04C84.7815 143.741 84.6961 143.416 84.6961 143.064V137.656C84.6961 137.304 84.7815 136.984 84.9521 136.696C85.1335 136.397 85.3681 136.163 85.6561 135.992C85.9548 135.811 86.2855 135.72 86.6481 135.72H92.8401V132.68H94.1521V145H86.6481ZM86.6481 143.688H92.2161C92.3868 143.688 92.5308 143.629 92.6481 143.512C92.7761 143.384 92.8401 143.235 92.8401 143.064V137.656C92.8401 137.485 92.7761 137.341 92.6481 137.224C92.5308 137.096 92.3868 137.032 92.2161 137.032H86.6481C86.4775 137.032 86.3281 137.096 86.2001 137.224C86.0828 137.341 86.0241 137.485 86.0241 137.656V143.064C86.0241 143.235 86.0828 143.384 86.2001 143.512C86.3281 143.629 86.4775 143.688 86.6481 143.688ZM97.3926 145C97.0406 145 96.7153 144.915 96.4166 144.744C96.1286 144.563 95.894 144.328 95.7126 144.04C95.542 143.741 95.4566 143.416 95.4566 143.064V137.656C95.4566 137.304 95.542 136.984 95.7126 136.696C95.894 136.397 96.1286 136.163 96.4166 135.992C96.7153 135.811 97.0406 135.72 97.3926 135.72H102.961C103.323 135.72 103.649 135.811 103.937 135.992C104.235 136.163 104.47 136.397 104.641 136.696C104.822 136.984 104.913 137.304 104.913 137.656V143.064C104.913 143.416 104.822 143.741 104.641 144.04C104.47 144.328 104.235 144.563 103.937 144.744C103.649 144.915 103.323 145 102.961 145H97.3926ZM97.3926 143.688H102.961C103.131 143.688 103.275 143.629 103.393 143.512C103.521 143.384 103.585 143.235 103.585 143.064V137.656C103.585 137.485 103.521 137.341 103.393 137.224C103.275 137.096 103.131 137.032 102.961 137.032H97.3926C97.222 137.032 97.0726 137.096 96.9446 137.224C96.8273 137.341 96.7686 137.485 96.7686 137.656V143.064C96.7686 143.235 96.8273 143.384 96.9446 143.512C97.0726 143.629 97.222 143.688 97.3926 143.688ZM106.348 145V135.72H113.868C114.22 135.72 114.54 135.811 114.828 135.992C115.127 136.163 115.362 136.397 115.532 136.696C115.714 136.984 115.804 137.304 115.804 137.656V145H114.492V137.656C114.492 137.485 114.428 137.341 114.3 137.224C114.183 137.096 114.039 137.032 113.868 137.032H108.3C108.13 137.032 107.98 137.096 107.852 137.224C107.724 137.341 107.66 137.485 107.66 137.656V145H106.348ZM119.377 145C119.025 145 118.7 144.915 118.401 144.744C118.113 144.563 117.878 144.328 117.697 144.04C117.526 143.741 117.441 143.416 117.441 143.064V137.656C117.441 137.304 117.526 136.984 117.697 136.696C117.878 136.397 118.113 136.163 118.401 135.992C118.7 135.811 119.025 135.72 119.377 135.72H124.945C125.308 135.72 125.633 135.811 125.921 135.992C126.22 136.163 126.454 136.397 126.625 136.696C126.806 136.984 126.897 137.304 126.897 137.656V141.016H118.753V143.064C118.753 143.235 118.812 143.384 118.929 143.512C119.057 143.629 119.206 143.688 119.377 143.688H126.897V145H119.377ZM118.753 139.704H125.569V137.656C125.569 137.485 125.505 137.341 125.377 137.224C125.26 137.096 125.116 137.032 124.945 137.032H119.377C119.206 137.032 119.057 137.096 118.929 137.224C118.812 137.341 118.753 137.485 118.753 137.656V139.704ZM130.143 145C129.791 145 129.465 144.915 129.167 144.744C128.879 144.563 128.644 144.328 128.463 144.04C128.292 143.741 128.207 143.416 128.207 143.064V137.656C128.207 137.304 128.292 136.984 128.463 136.696C128.644 136.397 128.879 136.163 129.167 135.992C129.465 135.811 129.791 135.72 130.143 135.72H137.631V137.032H130.143C129.972 137.032 129.823 137.096 129.695 137.224C129.577 137.341 129.519 137.485 129.519 137.656V143.064C129.519 143.235 129.577 143.384 129.695 143.512C129.823 143.629 129.972 143.688 130.143 143.688H137.663V145H130.143ZM143.707 145V135.72H145.019V145H143.707ZM143.707 133.992V132.68H145.019V133.992H143.707ZM146.833 145V135.72H154.353C154.705 135.72 155.025 135.811 155.313 135.992C155.611 136.163 155.846 136.397 156.017 136.696C156.198 136.984 156.289 137.304 156.289 137.656V145H154.977V137.656C154.977 137.485 154.913 137.341 154.785 137.224C154.667 137.096 154.523 137.032 154.353 137.032H148.785C148.614 137.032 148.465 137.096 148.337 137.224C148.209 137.341 148.145 137.485 148.145 137.656V145H146.833ZM162.333 145V135.72H174.589C174.951 135.72 175.277 135.811 175.565 135.992C175.863 136.163 176.098 136.397 176.269 136.696C176.439 136.984 176.525 137.304 176.525 137.656V145H175.229V137.656C175.229 137.485 175.165 137.341 175.037 137.224C174.909 137.096 174.759 137.032 174.589 137.032H170.733C170.562 137.032 170.413 137.096 170.285 137.224C170.167 137.341 170.109 137.485 170.109 137.656V145H168.781V137.656C168.781 137.485 168.717 137.341 168.589 137.224C168.471 137.096 168.327 137.032 168.157 137.032H164.285C164.114 137.032 163.965 137.096 163.837 137.224C163.719 137.341 163.661 137.485 163.661 137.656V145H162.333ZM179.861 145C179.509 145 179.184 144.915 178.885 144.744C178.597 144.563 178.363 144.328 178.181 144.04C178.011 143.741 177.925 143.416 177.925 143.064V137.656C177.925 137.304 178.011 136.984 178.181 136.696C178.363 136.397 178.597 136.163 178.885 135.992C179.184 135.811 179.509 135.72 179.861 135.72H185.429C185.792 135.72 186.117 135.811 186.405 135.992C186.704 136.163 186.939 136.397 187.109 136.696C187.291 136.984 187.381 137.304 187.381 137.656V143.064C187.381 143.416 187.291 143.741 187.109 144.04C186.939 144.328 186.704 144.563 186.405 144.744C186.117 144.915 185.792 145 185.429 145H179.861ZM179.861 143.688H185.429C185.6 143.688 185.744 143.629 185.861 143.512C185.989 143.384 186.053 143.235 186.053 143.064V137.656C186.053 137.485 185.989 137.341 185.861 137.224C185.744 137.096 185.6 137.032 185.429 137.032H179.861C179.691 137.032 179.541 137.096 179.413 137.224C179.296 137.341 179.237 137.485 179.237 137.656V143.064C179.237 143.235 179.296 143.384 179.413 143.512C179.541 143.629 179.691 143.688 179.861 143.688ZM188.863 145V137.656C188.863 137.304 188.949 136.984 189.119 136.696C189.301 136.397 189.535 136.163 189.823 135.992C190.122 135.811 190.447 135.72 190.799 135.72H196.015V137.032H190.799C190.629 137.032 190.479 137.096 190.351 137.224C190.234 137.341 190.175 137.485 190.175 137.656V145H188.863ZM197.083 145V132.68H198.395V135.72H204.603C204.955 135.72 205.275 135.811 205.563 135.992C205.861 136.163 206.096 136.397 206.267 136.696C206.448 136.984 206.539 137.304 206.539 137.656V143.064C206.539 143.416 206.448 143.741 206.267 144.04C206.096 144.328 205.861 144.563 205.563 144.744C205.275 144.915 204.955 145 204.603 145H197.083ZM199.035 143.688H204.603C204.773 143.688 204.917 143.629 205.035 143.512C205.163 143.384 205.227 143.235 205.227 143.064V137.656C205.227 137.485 205.163 137.341 205.035 137.224C204.917 137.096 204.773 137.032 204.603 137.032H199.035C198.864 137.032 198.715 137.096 198.587 137.224C198.459 137.341 198.395 137.485 198.395 137.656V143.064C198.395 143.235 198.459 143.384 198.587 143.512C198.715 143.629 198.864 143.688 199.035 143.688ZM207.723 145V135.72H209.035V145H207.723ZM207.723 133.992V132.68H209.035V133.992H207.723ZM215.442 148.68V135.72H222.962C223.314 135.72 223.634 135.811 223.922 135.992C224.221 136.163 224.455 136.397 224.626 136.696C224.807 136.984 224.898 137.304 224.898 137.656V143.064C224.898 143.416 224.807 143.741 224.626 144.04C224.455 144.328 224.221 144.563 223.922 144.744C223.634 144.915 223.314 145 222.962 145H216.754V148.68H215.442ZM217.394 143.688H222.962C223.133 143.688 223.277 143.629 223.394 143.512C223.522 143.384 223.586 143.235 223.586 143.064V137.656C223.586 137.485 223.522 137.341 223.394 137.224C223.277 137.096 223.133 137.032 222.962 137.032H217.394C217.223 137.032 217.074 137.096 216.946 137.224C216.818 137.341 216.754 137.485 216.754 137.656V143.064C216.754 143.235 216.818 143.384 216.946 143.512C217.074 143.629 217.223 143.688 217.394 143.688ZM227.987 145C227.635 145 227.31 144.915 227.011 144.744C226.723 144.563 226.488 144.328 226.307 144.04C226.136 143.741 226.051 143.416 226.051 143.064V135.72H227.363V143.064C227.363 143.235 227.422 143.384 227.539 143.512C227.667 143.629 227.816 143.688 227.987 143.688H233.555C233.726 143.688 233.875 143.629 234.003 143.512C234.131 143.384 234.195 143.235 234.195 143.064V135.72H235.507V143.064C235.507 143.416 235.416 143.741 235.235 144.04C235.064 144.328 234.83 144.563 234.531 144.744C234.243 144.915 233.918 145 233.555 145H227.987ZM239.096 145C238.744 145 238.419 144.915 238.12 144.744C237.832 144.563 237.597 144.328 237.416 144.04C237.245 143.741 237.16 143.416 237.16 143.064V132.68H238.472V143.064C238.472 143.235 238.531 143.384 238.648 143.512C238.776 143.629 238.925 143.688 239.096 143.688H240.664V145H239.096ZM245.675 145L240.555 135.72H242.091L246.443 143.72L250.795 135.72H252.331L247.195 145H245.675ZM253.691 145V135.72H255.003V145H253.691ZM253.691 133.992V132.68H255.003V133.992H253.691ZM256.817 145V135.72H264.337C264.689 135.72 265.009 135.811 265.297 135.992C265.596 136.163 265.83 136.397 266.001 136.696C266.182 136.984 266.273 137.304 266.273 137.656V145H264.961V137.656C264.961 137.485 264.897 137.341 264.769 137.224C264.652 137.096 264.508 137.032 264.337 137.032H258.769C258.598 137.032 258.449 137.096 258.321 137.224C258.193 137.341 258.129 137.485 258.129 137.656V145H256.817ZM269.862 145C269.51 145 269.184 144.915 268.886 144.744C268.598 144.563 268.363 144.328 268.182 144.04C268.011 143.741 267.926 143.416 267.926 143.064V139.704H276.054V137.656C276.054 137.485 275.99 137.341 275.862 137.224C275.744 137.096 275.6 137.032 275.43 137.032H267.926V135.72H275.43C275.792 135.72 276.118 135.811 276.406 135.992C276.704 136.163 276.939 136.397 277.11 136.696C277.291 136.984 277.382 137.304 277.382 137.656V145H269.862ZM269.862 143.688H276.054V141.016H269.238V143.064C269.238 143.235 269.296 143.384 269.414 143.512C269.542 143.629 269.691 143.688 269.862 143.688ZM278.957 145V137.656C278.957 137.304 279.042 136.984 279.213 136.696C279.394 136.397 279.629 136.163 279.917 135.992C280.216 135.811 280.541 135.72 280.893 135.72H286.109V137.032H280.893C280.722 137.032 280.573 137.096 280.445 137.224C280.328 137.341 280.269 137.485 280.269 137.656V145H278.957ZM286.864 145V143.688H288.176V145H286.864ZM294.709 145V133.48H305.221V134.776H296.005V138.584H303.413V139.896H296.005V143.704H305.221V145H294.709ZM306.895 145V135.72H314.415C314.767 135.72 315.087 135.811 315.375 135.992C315.674 136.163 315.909 136.397 316.079 136.696C316.261 136.984 316.351 137.304 316.351 137.656V145H315.039V137.656C315.039 137.485 314.975 137.341 314.847 137.224C314.73 137.096 314.586 137.032 314.415 137.032H308.847C308.677 137.032 308.527 137.096 308.399 137.224C308.271 137.341 308.207 137.485 308.207 137.656V145H306.895ZM318.004 145V135.72H319.316V145H318.004ZM318.004 133.992V132.68H319.316V133.992H318.004ZM321.364 145V135.72H333.62C333.983 135.72 334.308 135.811 334.596 135.992C334.895 136.163 335.129 136.397 335.3 136.696C335.471 136.984 335.556 137.304 335.556 137.656V145H334.26V137.656C334.26 137.485 334.196 137.341 334.068 137.224C333.94 137.096 333.791 137.032 333.62 137.032H329.764C329.593 137.032 329.444 137.096 329.316 137.224C329.199 137.341 329.14 137.485 329.14 137.656V145H327.812V137.656C327.812 137.485 327.748 137.341 327.62 137.224C327.503 137.096 327.359 137.032 327.188 137.032H323.316C323.145 137.032 322.996 137.096 322.868 137.224C322.751 137.341 322.692 137.485 322.692 137.656V145H321.364ZM341.364 145V135.72H348.884C349.236 135.72 349.556 135.811 349.844 135.992C350.143 136.163 350.377 136.397 350.548 136.696C350.729 136.984 350.82 137.304 350.82 137.656V145H349.508V137.656C349.508 137.485 349.444 137.341 349.316 137.224C349.199 137.096 349.055 137.032 348.884 137.032H343.316C343.145 137.032 342.996 137.096 342.868 137.224C342.74 137.341 342.676 137.485 342.676 137.656V145H341.364ZM354.158 145C353.806 145 353.481 144.915 353.182 144.744C352.894 144.563 352.66 144.328 352.478 144.04C352.308 143.741 352.222 143.416 352.222 143.064V137.656C352.222 137.304 352.308 136.984 352.478 136.696C352.66 136.397 352.894 136.163 353.182 135.992C353.481 135.811 353.806 135.72 354.158 135.72H359.726C360.089 135.72 360.414 135.811 360.702 135.992C361.001 136.163 361.236 136.397 361.406 136.696C361.588 136.984 361.678 137.304 361.678 137.656V143.064C361.678 143.416 361.588 143.741 361.406 144.04C361.236 144.328 361.001 144.563 360.702 144.744C360.414 144.915 360.089 145 359.726 145H354.158ZM354.158 143.688H359.726C359.897 143.688 360.041 143.629 360.158 143.512C360.286 143.384 360.35 143.235 360.35 143.064V137.656C360.35 137.485 360.286 137.341 360.158 137.224C360.041 137.096 359.897 137.032 359.726 137.032H354.158C353.988 137.032 353.838 137.096 353.71 137.224C353.593 137.341 353.534 137.485 353.534 137.656V143.064C353.534 143.235 353.593 143.384 353.71 143.512C353.838 143.629 353.988 143.688 354.158 143.688ZM363.114 145V135.72H370.634C370.986 135.72 371.306 135.811 371.594 135.992C371.893 136.163 372.127 136.397 372.298 136.696C372.479 136.984 372.57 137.304 372.57 137.656V145H371.258V137.656C371.258 137.485 371.194 137.341 371.066 137.224C370.949 137.096 370.805 137.032 370.634 137.032H365.066C364.895 137.032 364.746 137.096 364.618 137.224C364.49 137.341 364.426 137.485 364.426 137.656V145H363.114ZM378.614 148.68V135.72H386.134C386.486 135.72 386.806 135.811 387.094 135.992C387.393 136.163 387.627 136.397 387.798 136.696C387.979 136.984 388.07 137.304 388.07 137.656V143.064C388.07 143.416 387.979 143.741 387.798 144.04C387.627 144.328 387.393 144.563 387.094 144.744C386.806 144.915 386.486 145 386.134 145H379.926V148.68H378.614ZM380.566 143.688H386.134C386.305 143.688 386.449 143.629 386.566 143.512C386.694 143.384 386.758 143.235 386.758 143.064V137.656C386.758 137.485 386.694 137.341 386.566 137.224C386.449 137.096 386.305 137.032 386.134 137.032H380.566C380.395 137.032 380.246 137.096 380.118 137.224C379.99 137.341 379.926 137.485 379.926 137.656V143.064C379.926 143.235 379.99 143.384 380.118 143.512C380.246 143.629 380.395 143.688 380.566 143.688ZM391.159 145C390.807 145 390.482 144.915 390.183 144.744C389.895 144.563 389.66 144.328 389.479 144.04C389.308 143.741 389.223 143.416 389.223 143.064V135.72H390.535V143.064C390.535 143.235 390.594 143.384 390.711 143.512C390.839 143.629 390.988 143.688 391.159 143.688H396.727C396.898 143.688 397.047 143.629 397.175 143.512C397.303 143.384 397.367 143.235 397.367 143.064V135.72H398.679V143.064C398.679 143.416 398.588 143.741 398.407 144.04C398.236 144.328 398.002 144.563 397.703 144.744C397.415 144.915 397.09 145 396.727 145H391.159ZM402.268 145C401.916 145 401.591 144.915 401.292 144.744C401.004 144.563 400.769 144.328 400.588 144.04C400.417 143.741 400.332 143.416 400.332 143.064V132.68H401.644V143.064C401.644 143.235 401.703 143.384 401.82 143.512C401.948 143.629 402.097 143.688 402.268 143.688H403.836V145H402.268ZM408.847 145L403.727 135.72H405.263L409.615 143.72L413.967 135.72H415.503L410.367 145H408.847ZM416.863 145V135.72H418.175V145H416.863ZM416.863 133.992V132.68H418.175V133.992H416.863ZM419.989 145V135.72H427.509C427.861 135.72 428.181 135.811 428.469 135.992C428.768 136.163 429.002 136.397 429.173 136.696C429.354 136.984 429.445 137.304 429.445 137.656V145H428.133V137.656C428.133 137.485 428.069 137.341 427.941 137.224C427.824 137.096 427.68 137.032 427.509 137.032H421.941C421.77 137.032 421.621 137.096 421.493 137.224C421.365 137.341 421.301 137.485 421.301 137.656V145H419.989ZM433.034 145C432.682 145 432.356 144.915 432.058 144.744C431.77 144.563 431.535 144.328 431.354 144.04C431.183 143.741 431.098 143.416 431.098 143.064V139.704H439.226V137.656C439.226 137.485 439.162 137.341 439.034 137.224C438.916 137.096 438.772 137.032 438.602 137.032H431.098V135.72H438.602C438.964 135.72 439.29 135.811 439.578 135.992C439.876 136.163 440.111 136.397 440.282 136.696C440.463 136.984 440.554 137.304 440.554 137.656V145H433.034ZM433.034 143.688H439.226V141.016H432.41V143.064C432.41 143.235 432.468 143.384 432.586 143.512C432.714 143.629 432.863 143.688 433.034 143.688ZM442.129 145V137.656C442.129 137.304 442.214 136.984 442.385 136.696C442.566 136.397 442.801 136.163 443.089 135.992C443.388 135.811 443.713 135.72 444.065 135.72H449.281V137.032H444.065C443.894 137.032 443.745 137.096 443.617 137.224C443.5 137.341 443.441 137.485 443.441 137.656V145H442.129ZM454.708 145V135.72H462.228C462.58 135.72 462.9 135.811 463.188 135.992C463.486 136.163 463.721 136.397 463.892 136.696C464.073 136.984 464.164 137.304 464.164 137.656V145H462.852V137.656C462.852 137.485 462.788 137.341 462.66 137.224C462.542 137.096 462.398 137.032 462.228 137.032H456.66C456.489 137.032 456.34 137.096 456.212 137.224C456.084 137.341 456.02 137.485 456.02 137.656V145H454.708ZM467.736 145C467.384 145 467.059 144.915 466.76 144.744C466.472 144.563 466.238 144.328 466.056 144.04C465.886 143.741 465.8 143.416 465.8 143.064V137.656C465.8 137.304 465.886 136.984 466.056 136.696C466.238 136.397 466.472 136.163 466.76 135.992C467.059 135.811 467.384 135.72 467.736 135.72H473.304C473.667 135.72 473.992 135.811 474.28 135.992C474.579 136.163 474.814 136.397 474.984 136.696C475.166 136.984 475.256 137.304 475.256 137.656V141.016H467.112V143.064C467.112 143.235 467.171 143.384 467.288 143.512C467.416 143.629 467.566 143.688 467.736 143.688H475.256V145H467.736ZM467.112 139.704H473.928V137.656C473.928 137.485 473.864 137.341 473.736 137.224C473.619 137.096 473.475 137.032 473.304 137.032H467.736C467.566 137.032 467.416 137.096 467.288 137.224C467.171 137.341 467.112 137.485 467.112 137.656V139.704ZM484.527 148.68V145H478.335C477.972 145 477.641 144.915 477.343 144.744C477.055 144.563 476.82 144.328 476.639 144.04C476.468 143.741 476.383 143.416 476.383 143.064V137.656C476.383 137.304 476.468 136.984 476.639 136.696C476.82 136.397 477.055 136.163 477.343 135.992C477.641 135.811 477.972 135.72 478.335 135.72H485.839V148.68H484.527ZM478.335 143.688H483.903C484.073 143.688 484.217 143.629 484.335 143.512C484.463 143.384 484.527 143.235 484.527 143.064V137.656C484.527 137.485 484.463 137.341 484.335 137.224C484.217 137.096 484.073 137.032 483.903 137.032H478.335C478.164 137.032 478.015 137.096 477.887 137.224C477.769 137.341 477.711 137.485 477.711 137.656V143.064C477.711 143.235 477.769 143.384 477.887 143.512C478.015 143.629 478.164 143.688 478.335 143.688ZM489.065 145C488.713 145 488.388 144.915 488.089 144.744C487.801 144.563 487.567 144.328 487.385 144.04C487.215 143.741 487.129 143.416 487.129 143.064V135.72H488.441V143.064C488.441 143.235 488.5 143.384 488.617 143.512C488.745 143.629 488.895 143.688 489.065 143.688H494.633C494.804 143.688 494.953 143.629 495.081 143.512C495.209 143.384 495.273 143.235 495.273 143.064V135.72H496.585V143.064C496.585 143.416 496.495 143.741 496.313 144.04C496.143 144.328 495.908 144.563 495.609 144.744C495.321 144.915 494.996 145 494.633 145H489.065ZM499.924 145C499.572 145 499.247 144.915 498.948 144.744C498.66 144.563 498.425 144.328 498.244 144.04C498.073 143.741 497.988 143.416 497.988 143.064V137.656C497.988 137.304 498.073 136.984 498.244 136.696C498.425 136.397 498.66 136.163 498.948 135.992C499.247 135.811 499.572 135.72 499.924 135.72H505.492C505.855 135.72 506.18 135.811 506.468 135.992C506.767 136.163 507.001 136.397 507.172 136.696C507.353 136.984 507.444 137.304 507.444 137.656V141.016H499.3V143.064C499.3 143.235 499.359 143.384 499.476 143.512C499.604 143.629 499.753 143.688 499.924 143.688H507.444V145H499.924ZM499.3 139.704H506.116V137.656C506.116 137.485 506.052 137.341 505.924 137.224C505.807 137.096 505.663 137.032 505.492 137.032H499.924C499.753 137.032 499.604 137.096 499.476 137.224C499.359 137.341 499.3 137.485 499.3 137.656V139.704ZM509.114 145V143.688H510.426V145H509.114Z" fill="#555555"/>
<defs>
<clipPath id="clip0_1_119">
<rect width="292" height="12" fill="white" transform="translate(193 61)"/>
</clipPath>
</defs>
</svg>
